<svg viewBox="0 0 24 24" xmlns="http://www.w3.org/2000/svg" fill-rule="evenodd" clip-rule="evenodd" stroke-linejoin="round" stroke-miterlimit="2">
  <path d="M12 0a12 12 0 110 24 12 12 0 010-24zm0 2a10 10 0 110 20 10 10 0 010-20zm4.7 14.6c0-.6-.5-1-1-1H8.3a1 1 0 000 2h7.4c.5 0 1-.5 1-1zM8 8.2l-.7-.7A1 1 0 006 8.9l.7.7-.7.7a1 1 0 001.4 1.4L8 11l.7.7a1 1 0 001.4-1.4l-.7-.7.7-.7a1 1 0 00-1.4-1.4l-.7.7zm8 0l-.7-.7A1 1 0 0014 8.9l.7.7-.7.7a1 1 0 001.4 1.4l.7-.7.7.7a1 1 0 001.4-1.4l-.7-.7.7-.7a1 1 0 00-1.4-1.4l-.7.7z"/>
</svg>