<svg viewBox="0 0 1000 250" xmlns="http://www.w3.org/2000/svg" fill-rule="evenodd" clip-rule="evenodd"><path d="M558.431 224.368c44.157 0 93.374-19.623 93.374-64.021 0-34.198-27.024-53.084-73.465-58.699-47.475-5.614-60.748-11.484-60.748-22.969 0-14.292 17.867-26.798 42.881-26.798 28.332 0 41.35 10.975 49.518 29.861 6.122 14.037 7.397 19.651 15.81 19.396 8.923-.255 11.473-8.167 13.002-22.969 2.55-24.756 6.374-34.697-8.923-35.971-21.676-1.783-29.078-14.015-66.599-14.015-45.178 0-85.717 24.975-85.717 63.512 0 35.985 25.241 49.511 83.675 56.913 40.839 5.104 52.069 11.229 52.069 23.479s-12.506 25.777-44.667 25.777c-31.905 0-51.049-14.803-60.227-33.688-8.159-17.1-10.453-23.225-18.867-23.48-9.688-.255-17.596 13.781-17.596 36.24 0 24.75 6.378 28.828 18.616 34.18 13.258 5.862 36.214 13.252 67.864 13.252zm204.66 0c44.158 0 93.375-19.623 93.375-64.021 0-34.198-27.025-53.084-73.466-58.699-47.475-5.614-60.748-11.484-60.748-22.969 0-14.292 17.867-26.798 42.881-26.798 28.332 0 41.35 10.975 49.518 29.861 6.122 14.037 7.397 19.651 15.81 19.396 8.923-.255 11.473-8.167 13.002-22.969 2.55-24.756 6.374-34.697-8.923-35.971-21.676-1.783-29.078-14.015-66.599-14.015-45.178 0-85.717 24.975-85.717 63.512 0 35.985 25.241 49.511 83.675 56.913 40.839 5.104 52.07 11.229 52.07 23.479s-12.507 25.777-44.668 25.777c-31.905 0-51.049-14.803-60.227-33.688-8.159-17.1-10.453-23.225-18.867-23.48-9.688-.255-17.596 13.781-17.596 36.24 0 24.75 6.378 28.828 18.616 34.18 13.258 5.862 36.214 13.252 67.864 13.252zM122.468 25.632c54.843 0 99.368 44.525 99.368 99.368 0 54.843-44.525 99.368-99.368 99.368-54.843 0-99.368-44.525-99.368-99.368 0-54.843 44.525-99.368 99.368-99.368zm777.661 196.44c13.013 0 19.896-2.01 30.604-2.01 10.962 0 20.396 2.01 30.603 2.01 9.44 0 15.564-4.592 15.564-11.225 0-11.991-9.185-9.95-19.647-23.726-6.379-8.419-7.91-27.553-7.91-48.982v-24.746c0-21.43 1.531-40.564 7.91-48.983 10.462-13.776 17.096-14.286 17.096-22.705 0-7.653-6.124-12.246-15.565-12.246-10.461 0-17.089 2.01-28.051 2.01-10.708 0-20.397-2.01-28.052-2.01-9.441 0-15.565 4.593-15.565 12.246 0 8.419 6.635 8.929 17.096 22.705 6.379 8.419 7.91 27.553 7.91 48.983v24.746c0 21.429-1.531 40.563-7.91 48.982-10.461 13.776-19.647 11.735-19.647 23.726 0 6.633 6.124 11.225 15.564 11.225zm-658.238 0c13.012 0 22.955-8.929 70.143-2.807 64.063 8.165 131.655-11.718 131.655-93.627 0-59.209-43.09-100.006-99.751-100.006-27.055 0-43.39 5.861-68.895 5.861-10.707.008-22.946-2.034-30.6-2.034-9.441 0-15.565 4.593-15.565 12.246 0 8.419 6.634 8.929 17.095 22.705 6.379 8.419 7.91 27.553 7.91 48.983v24.746c0 21.429-1.531 40.563-7.91 48.982-10.461 13.776-19.647 11.735-19.647 23.726 0 6.633 6.124 11.225 15.565 11.225zM122.468 42.193c45.702 0 82.807 37.105 82.807 82.807 0 45.702-37.105 82.807-82.807 82.807-45.702 0-82.807-37.105-82.807-82.807 0-45.702 37.105-82.807 82.807-82.807zm167.871 63.539c0-41.09 13.527-55.637 39.561-55.637 44.155 0 70.699 47.215 70.699 91.111 0 33.944-24.502 62.264-65.594 56.402-32.925-4.849-44.666-32.667-44.666-91.876zm-129.249 56.99c0-4.57-3.711-8.281-8.281-8.281H92.127a8.285 8.285 0 00-8.281 8.281c0 4.57 3.71 8.28 8.281 8.28h60.682c4.57 0 8.281-3.71 8.281-8.28zM89.345 93.458l-5.744-5.744c-3.231-3.232-8.479-3.232-11.711 0-3.231 3.231-3.231 8.479 0 11.71l5.745 5.744-5.745 5.745c-3.231 3.231-3.231 8.479 0 11.71 3.232 3.232 8.48 3.232 11.711 0l5.744-5.744 5.744 5.744a8.284 8.284 0 0011.711 0 8.283 8.283 0 000-11.71l-5.744-5.745 5.744-5.744a8.283 8.283 0 000-11.71 8.284 8.284 0 00-11.711 0l-5.744 5.744zm66.246 0l-5.744-5.744a8.284 8.284 0 00-11.711 0 8.283 8.283 0 000 11.71l5.744 5.744-5.744 5.745a8.283 8.283 0 000 11.71 8.284 8.284 0 0011.711 0l5.744-5.744 5.744 5.744a8.283 8.283 0 0011.71 0 8.283 8.283 0 000-11.71l-5.744-5.745 5.744-5.744a8.283 8.283 0 000-11.71 8.283 8.283 0 00-11.71 0l-5.744 5.744z" fill="#008782"/></svg>