<svg viewBox="0 0 24 24" xmlns="http://www.w3.org/2000/svg" fill-rule="evenodd" clip-rule="evenodd"><path d="M18.802 16.569l2.022 2.022a1.861 1.861 0 11.896 3.129 1.86 1.86 0 11-3.129-.896l-2.255-2.256c.417-.4 1.454-.861 1.454-.861.458-.163.852-.627 1.012-1.138zm-13.605.002c.16.51.554.973 1.011 1.136 0 0 1.038.462 1.455.862l-2.254 2.255a1.861 1.861 0 11-3.129.896 1.86 1.86 0 11.896-3.129l2.021-2.02zM12 4.306c-3.806 0-6.892 1.901-6.892 5.707 0 0 .311 2.814.374 3.806.044.713 0 2.144 0 2.144.014.629.472 1.298 1.03 1.497 0 0 1.101.489 1.441.882.341.392.191 1.136.6 1.472.675.554 2.298 1.848 3.447 1.848s2.771-1.294 3.445-1.848c.41-.336.26-1.08.6-1.472.341-.393 1.442-.882 1.442-.882.558-.199 1.015-.868 1.03-1.497 0 0-.044-1.431.001-2.144.062-.992.374-3.806.374-3.806 0-3.806-3.086-5.707-6.892-5.707zm.919 12.082a.918.918 0 11-1.838 0c0-.507.919-2.24.919-2.24s.919 1.733.919 2.24zm1.608-5.915a2.067 2.067 0 11.001 4.135 2.067 2.067 0 01-.001-4.135zm-5.054 0a2.067 2.067 0 11.001 4.135 2.067 2.067 0 01-.001-4.135zM5.199 7.431L3.176 5.409A1.861 1.861 0 112.28 2.28a1.86 1.86 0 113.129.896l1.865 1.865c-.919.585-1.639 1.382-2.075 2.39zm11.527-2.39l1.865-1.865a1.861 1.861 0 113.129-.896 1.86 1.86 0 11-.896 3.129l-2.023 2.022c-.436-1.008-1.156-1.805-2.075-2.39z" fill-rule="nonzero"/></svg>