<svg viewBox="0 0 24 24" xmlns="http://www.w3.org/2000/svg" fill-rule="evenodd" clip-rule="evenodd"><path d="M12 2.524c-4.156 0-7.526 2.075-7.526 6.232 0 0 .34 3.073.408 4.156.049.779 0 2.341 0 2.341.016.688.516 1.418 1.125 1.635 0 0 1.202.534 1.574.963.371.428.208 1.24.655 1.608.737.604 2.51 2.017 3.764 2.017s3.026-1.413 3.762-2.017c.448-.367.284-1.18.656-1.608.371-.429 1.574-.963 1.574-.963.609-.217 1.109-.948 1.125-1.635 0 0-.049-1.562 0-2.341.069-1.083.409-4.156.409-4.156 0-4.157-3.37-6.232-7.526-6.232zm2.76 6.733a2.258 2.258 0 110 4.516 2.258 2.258 0 010-4.516zm-5.52 0a2.258 2.258 0 110 4.516 2.258 2.258 0 010-4.516zm3.763 6.46a1.003 1.003 0 11-2.006 0c0-.554 1.003-2.446 1.003-2.446s1.003 1.892 1.003 2.446z" fill-rule="nonzero"/><path d="M18.957 16.724l1.867 1.867a1.861 1.861 0 11.896 3.129 1.86 1.86 0 11-3.129-.896l-2.161-2.162c.048-.183.115-.353.232-.488.392-.452 1.661-1.016 1.661-1.016.233-.083.45-.237.634-.434zm-13.915.001c.184.197.401.35.633.433 0 0 1.269.564 1.662 1.016.117.135.183.306.232.49l-2.16 2.16a1.861 1.861 0 11-3.129.896 1.86 1.86 0 11.896-3.129l1.866-1.866zM4.34 6.572L3.176 5.409A1.861 1.861 0 112.28 2.28a1.86 1.86 0 113.129.896l.694.695A5.678 5.678 0 004.34 6.572zm13.557-2.701l.694-.695a1.861 1.861 0 113.129-.896 1.86 1.86 0 11-.896 3.129L19.66 6.572a5.678 5.678 0 00-1.763-2.701z"/></svg>